<svg width="55" height="61" viewBox="0 0 55 61" fill="none" xmlns="http://www.w3.org/2000/svg">
<path d="M27.1932 1L53.2065 15.7922M27.1932 1L1 15.7922M27.1932 1L8.92098 24.0827M27.1932 1L11.2071 38.6567M27.1932 1L44.5204 15.1376M27.1932 1V24.0827L44.5204 15.1376M53.2065 15.7922V45.1146M53.2065 15.7922L53.1722 15.9002M53.2065 45.1146L27.1932 59.7323M53.2065 45.1146L44.5204 37.3477M27.1932 59.7323L1 45.1146M27.1932 59.7323L44.5204 37.3477M27.1932 59.7323L44.5204 15.1376M27.1932 59.7323L18.7772 47.9945M27.1932 59.7323V32.7224M1 45.1146V15.7922M1 45.1146L8.92098 24.0827M1 45.1146L11.2071 38.6567M1 45.1146L18.7772 47.9945M1 15.7922L8.92098 24.0827M8.92098 24.0827L11.2071 38.6567M44.5204 37.3477L53.1722 15.9002M44.5204 37.3477V15.1376M11.2071 38.6567L18.7772 47.9945M11.2071 38.6567L27.1932 32.7224M53.1722 15.9002L44.5204 15.1376M18.7772 47.9945L27.1932 32.7224" stroke="url(#paint0_linear_767_1121)" stroke-width="1.72742"/>
<defs>
<linearGradient id="paint0_linear_767_1121" x1="19.84" y1="8.81819" x2="58.7812" y2="37.441" gradientUnits="userSpaceOnUse">
<stop stop-color="#510098"/>
<stop offset="1" stop-color="#B075FF"/>
</linearGradient>
</defs>
</svg>
