<svg width="230" height="54" viewBox="0 0 230 54" fill="none" xmlns="http://www.w3.org/2000/svg">
<path d="M37.607 35.184C36.3803 35.184 35.2073 35 34.088 34.632C32.9687 34.2487 32.087 33.758 31.443 33.16L32.294 31.366C32.9073 31.9027 33.6893 32.3473 34.64 32.7C35.5907 33.0527 36.5797 33.229 37.607 33.229C38.5423 33.229 39.3013 33.1217 39.884 32.907C40.4667 32.6923 40.896 32.401 41.172 32.033C41.448 31.6497 41.586 31.2203 41.586 30.745C41.586 30.193 41.402 29.7483 41.034 29.411C40.6813 29.0737 40.2137 28.8053 39.631 28.606C39.0637 28.3913 38.435 28.2073 37.745 28.054C37.055 27.9007 36.3573 27.7243 35.652 27.525C34.962 27.3103 34.3257 27.042 33.743 26.72C33.1757 26.398 32.7157 25.9687 32.363 25.432C32.0103 24.88 31.834 24.1747 31.834 23.316C31.834 22.488 32.0487 21.729 32.478 21.039C32.9227 20.3337 33.5973 19.774 34.502 19.36C35.422 18.9307 36.5873 18.716 37.998 18.716C38.9333 18.716 39.861 18.8387 40.781 19.084C41.701 19.3293 42.4983 19.682 43.173 20.142L42.414 21.982C41.724 21.522 40.9957 21.1923 40.229 20.993C39.4623 20.7783 38.7187 20.671 37.998 20.671C37.0933 20.671 36.3497 20.786 35.767 21.016C35.1843 21.246 34.755 21.5527 34.479 21.936C34.2183 22.3193 34.088 22.7487 34.088 23.224C34.088 23.7913 34.2643 24.2437 34.617 24.581C34.985 24.9183 35.4527 25.1867 36.02 25.386C36.6027 25.5853 37.239 25.7693 37.929 25.938C38.619 26.0913 39.309 26.2677 39.999 26.467C40.7043 26.6663 41.3407 26.927 41.908 27.249C42.4907 27.571 42.9583 28.0003 43.311 28.537C43.6637 29.0737 43.84 29.7637 43.84 30.607C43.84 31.4197 43.6177 32.1787 43.173 32.884C42.7283 33.574 42.0383 34.1337 41.103 34.563C40.183 34.977 39.0177 35.184 37.607 35.184ZM53.3872 22.695C54.3838 22.695 55.2578 22.8867 56.0092 23.27C56.7758 23.6533 57.3738 24.236 57.8032 25.018C58.2325 25.8 58.4472 26.789 58.4472 27.985V35H56.2392V28.238C56.2392 27.0573 55.9478 26.168 55.3652 25.57C54.7978 24.972 53.9928 24.673 52.9502 24.673C52.1682 24.673 51.4858 24.8263 50.9032 25.133C50.3205 25.4397 49.8682 25.892 49.5462 26.49C49.2395 27.088 49.0862 27.8317 49.0862 28.721V35H46.8782V17.934H49.0862V26.099L48.6492 25.225C49.0478 24.4277 49.6612 23.8067 50.4892 23.362C51.3172 22.9173 52.2832 22.695 53.3872 22.695ZM67.7544 35.138C66.5278 35.138 65.4391 34.8697 64.4884 34.333C63.5378 33.7963 62.7864 33.0603 62.2344 32.125C61.6824 31.1743 61.4064 30.101 61.4064 28.905C61.4064 27.6937 61.6824 26.6203 62.2344 25.685C62.7864 24.7497 63.5378 24.0213 64.4884 23.5C65.4391 22.9633 66.5278 22.695 67.7544 22.695C68.9658 22.695 70.0468 22.9633 70.9974 23.5C71.9634 24.0213 72.7148 24.7497 73.2514 25.685C73.8034 26.605 74.0794 27.6783 74.0794 28.905C74.0794 30.1163 73.8034 31.1897 73.2514 32.125C72.7148 33.0603 71.9634 33.7963 70.9974 34.333C70.0468 34.8697 68.9658 35.138 67.7544 35.138ZM67.7544 33.206C68.5364 33.206 69.2341 33.0297 69.8474 32.677C70.4761 32.3243 70.9668 31.826 71.3194 31.182C71.6721 30.5227 71.8484 29.7637 71.8484 28.905C71.8484 28.031 71.6721 27.2797 71.3194 26.651C70.9668 26.007 70.4761 25.5087 69.8474 25.156C69.2341 24.8033 68.5364 24.627 67.7544 24.627C66.9724 24.627 66.2748 24.8033 65.6614 25.156C65.0481 25.5087 64.5574 26.007 64.1894 26.651C63.8214 27.2797 63.6374 28.031 63.6374 28.905C63.6374 29.7637 63.8214 30.5227 64.1894 31.182C64.5574 31.826 65.0481 32.3243 65.6614 32.677C66.2748 33.0297 66.9724 33.206 67.7544 33.206ZM79.3721 35L74.8411 22.81H76.9341L80.9591 33.85H79.9701L84.1561 22.81H86.0191L90.1131 33.85H89.1471L93.2641 22.81H95.2421L90.6881 35H88.5721L84.7311 24.926H85.3751L81.4881 35H79.3721ZM108.673 35.184C107.447 35.184 106.274 35 105.154 34.632C104.035 34.2487 103.153 33.758 102.509 33.16L103.36 31.366C103.974 31.9027 104.756 32.3473 105.706 32.7C106.657 33.0527 107.646 33.229 108.673 33.229C109.609 33.229 110.368 33.1217 110.95 32.907C111.533 32.6923 111.962 32.401 112.238 32.033C112.514 31.6497 112.652 31.2203 112.652 30.745C112.652 30.193 112.468 29.7483 112.1 29.411C111.748 29.0737 111.28 28.8053 110.697 28.606C110.13 28.3913 109.501 28.2073 108.811 28.054C108.121 27.9007 107.424 27.7243 106.718 27.525C106.028 27.3103 105.392 27.042 104.809 26.72C104.242 26.398 103.782 25.9687 103.429 25.432C103.077 24.88 102.9 24.1747 102.9 23.316C102.9 22.488 103.115 21.729 103.544 21.039C103.989 20.3337 104.664 19.774 105.568 19.36C106.488 18.9307 107.654 18.716 109.064 18.716C110 18.716 110.927 18.8387 111.847 19.084C112.767 19.3293 113.565 19.682 114.239 20.142L113.48 21.982C112.79 21.522 112.062 21.1923 111.295 20.993C110.529 20.7783 109.785 20.671 109.064 20.671C108.16 20.671 107.416 20.786 106.833 21.016C106.251 21.246 105.821 21.5527 105.545 21.936C105.285 22.3193 105.154 22.7487 105.154 23.224C105.154 23.7913 105.331 24.2437 105.683 24.581C106.051 24.9183 106.519 25.1867 107.086 25.386C107.669 25.5853 108.305 25.7693 108.995 25.938C109.685 26.0913 110.375 26.2677 111.065 26.467C111.771 26.6663 112.407 26.927 112.974 27.249C113.557 27.571 114.025 28.0003 114.377 28.537C114.73 29.0737 114.906 29.7637 114.906 30.607C114.906 31.4197 114.684 32.1787 114.239 32.884C113.795 33.574 113.105 34.1337 112.169 34.563C111.249 34.977 110.084 35.184 108.673 35.184ZM123.166 35.138C121.939 35.138 120.85 34.8697 119.9 34.333C118.949 33.7963 118.198 33.0603 117.646 32.125C117.094 31.1743 116.818 30.101 116.818 28.905C116.818 27.6937 117.094 26.6203 117.646 25.685C118.198 24.7497 118.949 24.0213 119.9 23.5C120.85 22.9633 121.939 22.695 123.166 22.695C124.377 22.695 125.458 22.9633 126.409 23.5C127.375 24.0213 128.126 24.7497 128.663 25.685C129.215 26.605 129.491 27.6783 129.491 28.905C129.491 30.1163 129.215 31.1897 128.663 32.125C128.126 33.0603 127.375 33.7963 126.409 34.333C125.458 34.8697 124.377 35.138 123.166 35.138ZM123.166 33.206C123.948 33.206 124.645 33.0297 125.259 32.677C125.887 32.3243 126.378 31.826 126.731 31.182C127.083 30.5227 127.26 29.7637 127.26 28.905C127.26 28.031 127.083 27.2797 126.731 26.651C126.378 26.007 125.887 25.5087 125.259 25.156C124.645 24.8033 123.948 24.627 123.166 24.627C122.384 24.627 121.686 24.8033 121.073 25.156C120.459 25.5087 119.969 26.007 119.601 26.651C119.233 27.2797 119.049 28.031 119.049 28.905C119.049 29.7637 119.233 30.5227 119.601 31.182C119.969 31.826 120.459 32.3243 121.073 32.677C121.686 33.0297 122.384 33.206 123.166 33.206ZM132.544 35V17.934H134.752V35H132.544ZM144.097 35.138C143.054 35.138 142.134 34.9463 141.337 34.563C140.555 34.1797 139.942 33.597 139.497 32.815C139.068 32.0177 138.853 31.021 138.853 29.825V22.81H141.061V29.572C141.061 30.768 141.345 31.665 141.912 32.263C142.495 32.861 143.307 33.16 144.35 33.16C145.117 33.16 145.784 33.0067 146.351 32.7C146.918 32.378 147.355 31.918 147.662 31.32C147.969 30.7067 148.122 29.9707 148.122 29.112V22.81H150.33V35H148.237V31.711L148.582 32.585C148.183 33.3977 147.585 34.0263 146.788 34.471C145.991 34.9157 145.094 35.138 144.097 35.138ZM158.719 35.138C157.493 35.138 156.542 34.8083 155.867 34.149C155.193 33.4897 154.855 32.5467 154.855 31.32V20.142H157.063V31.228C157.063 31.8873 157.224 32.3933 157.546 32.746C157.884 33.0987 158.359 33.275 158.972 33.275C159.662 33.275 160.237 33.0833 160.697 32.7L161.387 34.287C161.05 34.5783 160.644 34.793 160.168 34.931C159.708 35.069 159.225 35.138 158.719 35.138ZM152.785 24.627V22.81H160.559V24.627H152.785ZM164.057 35V22.81H166.265V35H164.057ZM165.161 20.464C164.732 20.464 164.371 20.326 164.08 20.05C163.804 19.774 163.666 19.4367 163.666 19.038C163.666 18.624 163.804 18.279 164.08 18.003C164.371 17.727 164.732 17.589 165.161 17.589C165.59 17.589 165.943 17.727 166.219 18.003C166.51 18.2637 166.656 18.5933 166.656 18.992C166.656 19.406 166.518 19.7587 166.242 20.05C165.966 20.326 165.606 20.464 165.161 20.464ZM175.702 35.138C174.475 35.138 173.386 34.8697 172.436 34.333C171.485 33.7963 170.734 33.0603 170.182 32.125C169.63 31.1743 169.354 30.101 169.354 28.905C169.354 27.6937 169.63 26.6203 170.182 25.685C170.734 24.7497 171.485 24.0213 172.436 23.5C173.386 22.9633 174.475 22.695 175.702 22.695C176.913 22.695 177.994 22.9633 178.945 23.5C179.911 24.0213 180.662 24.7497 181.199 25.685C181.751 26.605 182.027 27.6783 182.027 28.905C182.027 30.1163 181.751 31.1897 181.199 32.125C180.662 33.0603 179.911 33.7963 178.945 34.333C177.994 34.8697 176.913 35.138 175.702 35.138ZM175.702 33.206C176.484 33.206 177.181 33.0297 177.795 32.677C178.423 32.3243 178.914 31.826 179.267 31.182C179.619 30.5227 179.796 29.7637 179.796 28.905C179.796 28.031 179.619 27.2797 179.267 26.651C178.914 26.007 178.423 25.5087 177.795 25.156C177.181 24.8033 176.484 24.627 175.702 24.627C174.92 24.627 174.222 24.8033 173.609 25.156C172.995 25.5087 172.505 26.007 172.137 26.651C171.769 27.2797 171.585 28.031 171.585 28.905C171.585 29.7637 171.769 30.5227 172.137 31.182C172.505 31.826 172.995 32.3243 173.609 32.677C174.222 33.0297 174.92 33.206 175.702 33.206ZM191.589 22.695C192.586 22.695 193.46 22.8867 194.211 23.27C194.978 23.6533 195.576 24.236 196.005 25.018C196.435 25.8 196.649 26.789 196.649 27.985V35H194.441V28.238C194.441 27.0573 194.15 26.168 193.567 25.57C193 24.972 192.195 24.673 191.152 24.673C190.37 24.673 189.688 24.8263 189.105 25.133C188.523 25.4397 188.07 25.892 187.748 26.49C187.442 27.088 187.288 27.8317 187.288 28.721V35H185.08V22.81H187.196V26.099L186.851 25.225C187.25 24.4277 187.863 23.8067 188.691 23.362C189.519 22.9173 190.485 22.695 191.589 22.695Z" fill="white"/>
<rect x="1.5" y="1.5" width="227" height="51" rx="5.5" stroke="url(#paint0_linear_18_251)" stroke-width="3"/>
<defs>
<linearGradient id="paint0_linear_18_251" x1="-17.5747" y1="26.6824" x2="136.939" y2="27.3189" gradientUnits="userSpaceOnUse">
<stop stop-color="#BC9260"/>
<stop offset="1" stop-color="#EFD1A0"/>
</linearGradient>
</defs>
</svg>
