<svg width="170" height="170" viewBox="0 0 170 170" fill="none" xmlns="http://www.w3.org/2000/svg">
<path fill-rule="evenodd" clip-rule="evenodd" d="M99.5684 8.93611L98.8161 8.5L98.0638 8.93611L33.2885 46.4871L30.9911 47.819L33.3177 49.0991L97.3788 84.3447L97.3778 85.5318L97.3731 91.2576L97.3571 110.673L97.3183 157.836L83.3745 149.752L67.1807 140.365L65.6761 142.96L81.8699 152.348L98.0638 161.736L98.8161 162.172L99.5684 161.736L141.442 137.461L157.78 127.99L162.598 125.197L163.894 124.445L164.23 124.251L164.315 124.201L164.337 124.189L164.342 124.186L164.344 124.185C164.344 124.185 164.344 124.185 163.592 122.887L164.344 124.185L165.092 123.751V122.887V47.7848V46.9206L164.344 46.4871L99.5684 8.93611ZM160.544 47.752L98.8788 81.7459L37.0905 47.7507L98.8161 11.9676L160.544 47.752ZM100.379 84.3446L162.092 50.3246V122.023L161.094 122.601L156.275 125.394L139.938 134.865L100.318 157.833L100.357 110.676L100.373 91.2601L100.378 85.5342L100.379 84.3446ZM50.9388 79.1421H4V82.1421H50.9388V79.1421ZM20.8981 101.673H67.8369V104.673H20.8981V101.673ZM62.204 124.203H15.2652V127.203H62.204V124.203Z" fill="url(#paint0_linear_360_501)"/>
<defs>
<linearGradient id="paint0_linear_360_501" x1="62.1338" y1="28.9561" x2="167.808" y2="120.558" gradientUnits="userSpaceOnUse">
<stop stop-color="#510098"/>
<stop offset="1" stop-color="#B075FF"/>
</linearGradient>
</defs>
</svg>
