<svg width="170" height="170" viewBox="0 0 170 170" fill="none" xmlns="http://www.w3.org/2000/svg">
<path fill-rule="evenodd" clip-rule="evenodd" d="M70.5736 10.6228L52.4466 20.6876L16.9644 40.3885V78.3522C20.6594 78.9025 23.5588 81.9852 23.5588 85.8035C23.5588 90.0218 20.0201 93.3424 15.7794 93.3424C11.5387 93.3424 8 90.0218 8 85.8035C8 82.2051 10.5751 79.2599 13.9644 78.4721V39.5057V38.6228L14.7362 38.1943L50.9903 18.0648L69.1173 8L70.5736 10.6228ZM125.845 18.5591C126.063 17.8647 126.18 17.1257 126.18 16.357C126.18 12.1387 122.642 8.81814 118.401 8.81814C114.16 8.81814 110.622 12.1387 110.622 16.357C110.622 20.5753 114.16 23.8958 118.401 23.8958C120.785 23.8958 122.947 22.8467 124.383 21.1787L158.981 40.3885V59.6352V79.7647V99.8942H161.981V79.7647V59.6352V39.5057V38.6228L161.209 38.1943L125.845 18.5591ZM34.3196 128.777L43.3831 133.809L52.4466 138.842L70.5736 148.907L87.9725 158.567L105.371 148.907L122.43 139.435C122.187 138.706 122.056 137.927 122.056 137.114C122.056 132.896 125.594 129.575 129.835 129.575C134.076 129.575 137.614 132.896 137.614 137.114C137.614 141.332 134.076 144.653 129.835 144.653C127.497 144.653 125.372 143.643 123.936 142.03L106.828 151.529L88.7006 161.594L87.9725 161.999L87.2444 161.594L69.1173 151.529L50.9903 141.465L41.9268 136.432L32.8633 131.4L34.3196 128.777ZM87.527 20.6797L88.2552 21.084L140.37 50.0202L141.142 50.4487V51.3316V109.204V110.087L140.37 110.515L88.2552 139.452L87.527 139.856L86.7989 139.452L34.6837 110.515L33.9118 110.087V109.204V51.3316V50.4487L34.6837 50.0202L86.7989 21.084L87.527 20.6797ZM36.9118 52.2144V108.321L87.527 136.424L138.142 108.321V52.2144L87.527 24.1111L36.9118 52.2144ZM11 85.8035C11 83.3514 13.084 81.2646 15.7794 81.2646C18.4747 81.2646 20.5588 83.3514 20.5588 85.8035C20.5588 88.2556 18.4747 90.3424 15.7794 90.3424C13.084 90.3424 11 88.2556 11 85.8035ZM129.835 132.575C127.14 132.575 125.056 134.662 125.056 137.114C125.056 139.566 127.14 141.653 129.835 141.653C132.53 141.653 134.614 139.566 134.614 137.114C134.614 134.662 132.53 132.575 129.835 132.575ZM113.622 16.357C113.622 13.9049 115.706 11.8181 118.401 11.8181C121.096 11.8181 123.18 13.9049 123.18 16.357C123.18 18.8091 121.096 20.8958 118.401 20.8958C115.706 20.8958 113.622 18.8091 113.622 16.357Z" fill="url(#paint0_linear_360_502)"/>
<defs>
<linearGradient id="paint0_linear_360_502" x1="63.5676" y1="28.4996" x2="168.644" y2="115.378" gradientUnits="userSpaceOnUse">
<stop stop-color="#510098"/>
<stop offset="1" stop-color="#B075FF"/>
</linearGradient>
</defs>
</svg>
