<svg width="170" height="170" viewBox="0 0 170 170" fill="none" xmlns="http://www.w3.org/2000/svg">
<path fill-rule="evenodd" clip-rule="evenodd" d="M85.4494 9L86.0526 9.2657L129.965 28.6071L126.388 19.3988C126.088 18.6266 126.471 17.7574 127.244 17.4575C128.016 17.1575 128.885 17.5403 129.185 18.3125L134.073 30.8964C134.373 31.6686 133.99 32.5378 133.218 32.8378L120.634 37.7261C119.862 38.026 118.993 37.6432 118.693 36.871C118.393 36.0988 118.776 35.2296 119.548 34.9296L128.756 31.3526L85.4466 12.2769L38.6067 32.8133L37.4021 30.0658L84.8457 9.26468L85.4494 9ZM35.7764 56.4781C35.7764 61.4636 31.7247 65.5158 26.7133 65.5158C21.702 65.5158 17.6503 61.4636 17.6503 56.4781C17.6503 51.4927 21.702 47.4404 26.7133 47.4404C31.7247 47.4404 35.7764 51.4927 35.7764 56.4781ZM38.7764 56.4781C38.7764 63.1263 33.3756 68.5158 26.7133 68.5158C20.0511 68.5158 14.6503 63.1263 14.6503 56.4781C14.6503 49.8299 20.0511 44.4404 26.7133 44.4404C33.3756 44.4404 38.7764 49.8299 38.7764 56.4781ZM100.435 62.5451C100.435 70.8888 93.675 77.6498 85.3402 77.6498C77.0053 77.6498 70.2456 70.8888 70.2456 62.5451C70.2456 54.2015 77.0053 47.4404 85.3402 47.4404C93.675 47.4404 100.435 54.2015 100.435 62.5451ZM103.435 62.5451C103.435 72.5441 95.3335 80.6498 85.3402 80.6498C75.3468 80.6498 67.2456 72.5441 67.2456 62.5451C67.2456 52.5462 75.3468 44.4404 85.3402 44.4404C95.3335 44.4404 103.435 52.5462 103.435 62.5451ZM81.7981 85.4605H88.8815C103.257 85.4605 114.91 97.1139 114.91 111.489V122.912H55.7696V111.489C55.7696 97.1138 67.423 85.4605 81.7981 85.4605ZM52.7696 111.489C52.7696 95.457 65.7661 82.4605 81.7981 82.4605H88.8815C104.913 82.4605 117.91 95.457 117.91 111.489V122.912V125.912H114.91H55.7696H52.7696V122.912V111.489ZM146.378 72.7199H141.553C132.551 72.7199 125.252 80.018 125.252 89.0207V95.6103H162.679V89.0207C162.679 80.018 155.381 72.7199 146.378 72.7199ZM141.553 69.7199C130.894 69.7199 122.252 78.3612 122.252 89.0207V95.6103V98.6103H125.252H162.679H165.679V95.6103V89.0207C165.679 78.3612 157.038 69.7199 146.378 69.7199H141.553ZM153.029 56.4781C153.029 61.4636 148.977 65.5158 143.966 65.5158C138.954 65.5158 134.903 61.4636 134.903 56.4781C134.903 51.4927 138.954 47.4404 143.966 47.4404C148.977 47.4404 153.029 51.4927 153.029 56.4781ZM156.029 56.4781C156.029 63.1264 150.628 68.5158 143.966 68.5158C137.304 68.5158 131.903 63.1264 131.903 56.4781C131.903 49.8299 137.304 44.4404 143.966 44.4404C150.628 44.4404 156.029 49.8299 156.029 56.4781ZM29.126 72.7199H24.3008C15.2981 72.7199 8 80.018 8 89.0207V95.6103H45.4269V89.0207C45.4269 80.018 38.1287 72.7199 29.126 72.7199ZM24.3008 69.7199C13.6413 69.7199 5 78.3611 5 89.0207V95.6103V98.6103H8H45.4269H48.4269V95.6103V89.0207C48.4269 78.3611 39.7856 69.7199 29.126 69.7199H24.3008ZM84.6267 161.086L85.23 161.352L85.8337 161.087L133.277 140.286L132.073 137.538L85.2327 158.075L41.9231 138.999L51.1315 135.422C51.9037 135.122 52.2865 134.253 51.9865 133.481C51.6866 132.708 50.8174 132.326 50.0452 132.625L37.4613 137.514C36.689 137.814 36.3062 138.683 36.6062 139.455L41.4945 152.039C41.7944 152.811 42.6636 153.194 43.4358 152.894C44.208 152.594 44.5909 151.725 44.2909 150.953L40.7139 141.744L84.6267 161.086Z" fill="url(#paint0_linear_360_505)"/>
<defs>
<linearGradient id="paint0_linear_360_505" x1="62.985" y1="29.2804" x2="167.84" y2="120.725" gradientUnits="userSpaceOnUse">
<stop stop-color="#510098"/>
<stop offset="1" stop-color="#B075FF"/>
</linearGradient>
</defs>
</svg>
