<svg width="170" height="170" viewBox="0 0 170 170" fill="none" xmlns="http://www.w3.org/2000/svg">
<path fill-rule="evenodd" clip-rule="evenodd" d="M5.5 9H4V10.5V48.5V50H5.5H43.5001H45.0001V48.5V10.5V9H43.5001H5.5ZM7 47V12H42.0001V47H7ZM69 28.5H67.5V30V68V69.5H69H107H108.5V68V30V28.5H107H69ZM70.5 66.5V31.5H105.5V66.5H70.5ZM125 44.5H123.5V46V82.5H87H85.5V84V120.5H49H47.5V122V160V161.5H49H87H125H163.5H165V160V122V121.99L165 121.98L164.5 83.9901V46V44.5H163H125ZM88.5 85.5H123.5V120.5H88.5V85.5ZM126.5 85.5V120.5H161.98L161.52 85.5H126.5ZM88.5 123.5H123.5V158.5H88.5V123.5ZM126.5 123.5V158.5H162V123.5H126.5ZM85.5 123.5V158.5H50.5V123.5H85.5ZM126.5 82.5H161.5V47.5H126.5V82.5ZM6 79H7.5H45.5001H47.0001V80.5V118.5V120H45.5001H7.5H6V118.5V80.5V79ZM9 82V117H44.0001V82H9Z" fill="url(#paint0_linear_360_504)"/>
<defs>
<linearGradient id="paint0_linear_360_504" x1="62.1007" y1="29.3002" x2="167.072" y2="120.94" gradientUnits="userSpaceOnUse">
<stop stop-color="#510098"/>
<stop offset="1" stop-color="#B075FF"/>
</linearGradient>
</defs>
</svg>
