<svg width="804" height="804" viewBox="0 0 804 804" fill="none" xmlns="http://www.w3.org/2000/svg">
<g opacity="0.9">
<rect x="1.00125" y="1.00125" width="801.997" height="801.997" stroke="#FFE5B4" stroke-width="1.9975"/>
<path d="M2 2H102V102H2V2Z" fill="#BC9260"/>
<path d="M102 2H202V102H102V2Z" fill="#EFD1A0"/>
<path d="M202 2H302V102H202V2Z" fill="#BC9260"/>
<path d="M302 2H402V102H302V2Z" fill="#EFD1A0"/>
<path d="M402 2H502V102H402V2Z" fill="#BC9260"/>
<path d="M502 2H602V102H502V2Z" fill="#EFD1A0"/>
<path d="M602 2H702V102H602V2Z" fill="#BC9260"/>
<path d="M702 2H802V102H702V2Z" fill="#EFD1A0"/>
<path d="M802 202H702V102H802V202Z" fill="#BC9260"/>
<path d="M702 202H602V102H702V202Z" fill="#EFD1A0"/>
<path d="M602 202H502V102H602V202Z" fill="#BC9260"/>
<path d="M502 202H402V102H502V202Z" fill="#EFD1A0"/>
<path d="M402 202H302V102H402V202Z" fill="#BC9260"/>
<path d="M302 202H202V102H302V202Z" fill="#EFD1A0"/>
<path d="M202 202H102V102H202V202Z" fill="#BC9260"/>
<path d="M102 202H2V102H102V202Z" fill="#EFD1A0"/>
<path d="M2 202H102V302H2V202Z" fill="#BC9260"/>
<path d="M102 202H202V302H102V202Z" fill="#EFD1A0"/>
<path d="M202 202H302V302H202V202Z" fill="#BC9260"/>
<path d="M302 202H402V302H302V202Z" fill="#EFD1A0"/>
<path d="M402 202H502V302H402V202Z" fill="#BC9260"/>
<path d="M502 202H602V302H502V202Z" fill="#EFD1A0"/>
<path d="M602 202H702V302H602V202Z" fill="#BC9260"/>
<path d="M702 202H802V302H702V202Z" fill="#EFD1A0"/>
<path d="M802 402H702V302H802V402Z" fill="#BC9260"/>
<path d="M702 402H602V302H702V402Z" fill="#EFD1A0"/>
<path d="M602 402H502V302H602V402Z" fill="#BC9260"/>
<path d="M502 402H402V302H502V402Z" fill="#EFD1A0"/>
<path d="M402 402H302V302H402V402Z" fill="#BC9260"/>
<path d="M302 402H202V302H302V402Z" fill="#EFD1A0"/>
<path d="M202 402H102V302H202V402Z" fill="#BC9260"/>
<path d="M102 402H2V302H102V402Z" fill="#EFD1A0"/>
<path d="M2 402H102V502H2V402Z" fill="#BC9260"/>
<path d="M102 402H202V502H102V402Z" fill="#EFD1A0"/>
<path d="M202 402H302V502H202V402Z" fill="#BC9260"/>
<path d="M302 402H402V502H302V402Z" fill="#EFD1A0"/>
<path d="M402 402H502V502H402V402Z" fill="#BC9260"/>
<path d="M502 402H602V502H502V402Z" fill="#EFD1A0"/>
<path d="M602 402H702V502H602V402Z" fill="#BC9260"/>
<path d="M702 402H802V502H702V402Z" fill="#EFD1A0"/>
<path d="M802 602H702V502H802V602Z" fill="#BC9260"/>
<path d="M702 602H602V502H702V602Z" fill="#EFD1A0"/>
<path d="M602 602H502V502H602V602Z" fill="#BC9260"/>
<path d="M502 602H402V502H502V602Z" fill="#EFD1A0"/>
<path d="M402 602H302V502H402V602Z" fill="#BC9260"/>
<path d="M302 602H202V502H302V602Z" fill="#EFD1A0"/>
<path d="M202 602H102V502H202V602Z" fill="#BC9260"/>
<path d="M102 602H2V502H102V602Z" fill="#EFD1A0"/>
<path d="M2 602H102V702H2V602Z" fill="#BC9260"/>
<path d="M102 602H202V702H102V602Z" fill="#EFD1A0"/>
<path d="M202 602H302V702H202V602Z" fill="#BC9260"/>
<path d="M302 602H402V702H302V602Z" fill="#EFD1A0"/>
<path d="M402 602H502V702H402V602Z" fill="#BC9260"/>
<path d="M502 602H602V702H502V602Z" fill="#EFD1A0"/>
<path d="M602 602H702V702H602V602Z" fill="#BC9260"/>
<path d="M702 602H802V702H702V602Z" fill="#EFD1A0"/>
<path d="M802 802H702L702 702H802L802 802Z" fill="#BC9260"/>
<path d="M702 802H602L602 702H702L702 802Z" fill="#EFD1A0"/>
<path d="M602 802H502L502 702H602L602 802Z" fill="#BC9260"/>
<path d="M502 802H402L402 702H502L502 802Z" fill="#EFD1A0"/>
<path d="M402 802H302L302 702H402L402 802Z" fill="#BC9260"/>
<path d="M302 802H202L202 702H302L302 802Z" fill="#EFD1A0"/>
<path d="M202 802H102L102 702H202L202 802Z" fill="#BC9260"/>
<path d="M102 802H1.99994L2 702H102L102 802Z" fill="#EFD1A0"/>
</g>
</svg>
