<svg width="71" height="57" viewBox="0 0 71 57" fill="none" xmlns="http://www.w3.org/2000/svg">
<g clip-path="url(#clip0_7_25)">
<path d="M50.1762 45.5602L58.3763 47.8502L51.1862 50.4603L42.9361 47.9202L50.1762 45.5602ZM20.4259 45.5602L14.0859 43.5002L6.14578 45.6402L0.245728 43.5002C0.245728 40.5502 3.74576 40.0702 5.38577 38.5502H35.296H65.2163C66.8563 40.0702 70.3564 40.5502 70.3564 43.5002L64.4563 45.6402L56.5162 43.5002L50.1762 45.5602L42.7761 43.5002H41.4461L35.296 45.3602L29.156 43.5002H27.816L20.4259 45.5602ZM27.676 47.9202L19.4159 50.4603L12.2358 47.8402L20.4259 45.5602L27.676 47.9202ZM35.306 50.5503L42.9061 53.4703L35.306 56.2303L27.696 53.4703L35.306 50.5503ZM35.306 50.4003L27.686 47.9102L35.306 45.5702L42.9361 47.9102L35.306 50.4003ZM45.1961 32.7301C45.9161 32.8701 46.5161 33.0701 47.0262 33.3601C46.9995 33.2334 46.9895 33.1034 46.9962 32.9701C47.0462 32.2901 47.5662 31.7201 48.2962 31.5201C49.5295 30.6934 50.1528 29.7934 50.1662 28.8201C50.1262 28.4067 50.3562 28.1167 50.8562 27.9501C51.1562 27.8601 51.3462 27.6101 51.3262 27.3401C51.2962 27.0601 51.0562 26.8401 50.7462 26.8001C48.4562 26.6801 49.0662 24.76 49.9062 23.34C51.0862 21.32 53.4262 19.3 54.7062 17.74C56.2162 15.89 55.6262 14.81 53.0062 15.56C50.5162 16.35 50.8162 17.06 49.6862 17.58C48.4162 18.15 46.6561 16.84 46.4261 15.48C46.3361 14.92 46.4661 14.33 46.9262 13.82C47.7862 12.8299 49.4562 11.2499 49.7462 10.0499C50.1862 8.82991 52.1262 7.9999 53.8062 7.3999C53.8562 6.06989 53.6262 5.49988 52.5162 4.76988C55.2362 4.22987 58.8663 5.48988 58.6663 8.73991C58.8963 8.2799 58.9863 7.7699 58.9463 7.2699C60.4463 7.7399 61.7063 8.52991 62.6863 9.55991C63.5163 10.5199 63.7363 11.8899 63.2163 13.0799C63.6463 12.7199 63.9663 12.2599 64.1363 11.7499C64.4663 12.4899 64.6963 13.2999 64.8063 14.17C65.0263 16.79 65.2763 21.03 62.8663 22.75C63.4763 22.87 63.9763 22.57 64.4263 22.07C64.2263 23.0367 63.963 23.9567 63.6363 24.83C63.4663 25.51 63.2363 26.1701 62.9563 26.8201C62.7363 26.7601 62.4963 26.8101 62.3263 26.9501C62.1663 27.1001 62.0963 27.3101 62.1663 27.5101C62.2263 27.7001 62.4063 27.8501 62.6363 27.9001C63.1063 30.4101 63.9863 30.5001 65.4263 32.1701C65.8563 32.8201 65.8263 33.6201 65.3663 34.2501C65.0163 34.6301 64.5563 34.9101 64.0263 35.0601C64.5163 35.1601 64.9163 35.4501 65.1063 35.8401C65.3063 36.2401 65.2663 36.7001 65.0163 37.0701H49.4162H47.1262H44.3661H40.0861C40.9861 36.1101 40.9961 34.6101 40.0961 33.6301C39.8428 33.4168 39.5394 32.9334 39.1861 32.1801C39.6328 32.0334 39.8528 31.7768 39.8461 31.4101C38.5661 30.7901 37.4861 28.1667 36.6061 23.54H38.1761C38.8761 23.54 39.4561 22.96 39.4561 22.26C39.4561 21.55 38.8761 20.97 38.1761 20.97H37.1961C38.0461 20.35 38.5961 19.36 38.5961 18.23C38.5961 16.02 36.9461 14.92 35.306 14.92C33.656 14.92 32.016 16.02 32.016 18.23C32.016 19.36 32.556 20.35 33.406 20.97H32.436C31.726 20.97 31.146 21.55 31.146 22.26C31.146 22.96 31.726 23.54 32.436 23.54H33.996C33.1227 28.1667 32.046 30.7901 30.766 31.4101C30.7527 31.7768 30.9693 32.0334 31.416 32.1801C31.0627 32.9334 30.7627 33.4168 30.516 33.6301C29.606 34.6101 29.626 36.1101 30.516 37.0701H26.236H23.4759H21.1859H5.59578C5.33577 36.7001 5.30577 36.2401 5.49578 35.8401C5.69578 35.4501 6.09578 35.1601 6.57579 35.0601C6.04578 34.9101 5.58578 34.6301 5.23577 34.2501C4.77577 33.6201 4.75577 32.8201 5.17577 32.1701C6.61579 30.5001 7.49579 30.4101 7.9658 27.9001C8.1958 27.8501 8.3758 27.7001 8.4458 27.5101C8.5058 27.3101 8.4458 27.1001 8.2758 26.9501C8.1158 26.8101 7.8658 26.7601 7.64579 26.8201C7.36579 26.1701 7.14579 25.51 6.96579 24.83C6.64579 23.9567 6.38245 23.0367 6.17578 22.07C6.62579 22.57 7.12579 22.87 7.7358 22.75C5.33577 21.03 5.58578 16.79 5.79578 14.17C5.91578 13.2999 6.13578 12.4899 6.46578 11.7499C6.63579 12.2599 6.95579 12.7199 7.39579 13.0799C6.86579 11.8899 7.08579 10.5199 7.9258 9.55991C8.89581 8.52991 10.1658 7.7399 11.6658 7.2699C11.6158 7.7699 11.7058 8.2799 11.9458 8.73991C11.7458 5.48988 15.3659 4.22987 18.0859 4.76988C16.9759 5.49988 16.7559 6.06989 16.7959 7.3999C18.4759 7.9999 20.4159 8.82991 20.8559 10.0499C21.1559 11.2499 22.8159 12.8299 23.6759 13.82C24.1359 14.33 24.2659 14.92 24.1759 15.48C23.9459 16.84 22.1859 18.15 20.9159 17.58C19.7859 17.06 20.0959 16.35 17.5959 15.56C14.9759 14.81 14.3859 15.89 15.8959 17.74C17.1759 19.3 19.5159 21.32 20.6959 23.34C21.5359 24.76 22.1459 26.6801 19.8559 26.8001C19.5459 26.8401 19.3059 27.0601 19.2859 27.3401C19.2559 27.6101 19.4459 27.8601 19.7459 27.9501C20.2459 28.1167 20.4759 28.4067 20.4359 28.8201C20.4559 29.7934 21.0793 30.6934 22.3059 31.5201C23.0459 31.7201 23.5659 32.2901 23.6059 32.9701C23.6159 33.1001 23.6059 33.2301 23.5759 33.3601C24.0859 33.0701 24.6859 32.8701 25.406 32.7301C26.456 32.5401 27.206 31.6901 27.286 30.6301L27.356 29.6401L27.966 20.96C27.266 20.89 26.746 20.27 26.796 19.57C26.846 18.86 27.446 18.32 28.156 18.35H29.526L28.346 18.02L29.136 7.9999L30.266 7.5399C29.896 7.5399 28.836 7.5999 28.536 7.5099C28.296 7.4399 28.086 7.2699 27.966 7.03989C27.776 6.67989 27.836 6.22989 28.116 5.93989C28.406 5.63988 28.846 5.55988 29.216 5.73988C27.686 4.73988 27.076 2.78986 27.526 0.649841H30.656L30.946 3.42986H33.366L33.596 0.649841H35.306H37.0161L37.2361 3.42986H39.6661L39.9561 0.649841H43.0761C43.5261 2.78986 42.9261 4.73988 41.3861 5.73988C41.7561 5.55988 42.2061 5.63988 42.4861 5.93989C42.7661 6.22989 42.8361 6.67989 42.6461 7.03989C42.5261 7.2699 42.3161 7.4399 42.0661 7.5099C41.7661 7.5999 40.7061 7.5399 40.3361 7.5399L41.4661 7.9999L42.2561 18.02L41.0861 18.35H42.4461C43.1561 18.32 43.7561 18.86 43.8061 19.57C43.8561 20.27 43.3361 20.89 42.6361 20.96L43.2561 29.6401L43.3161 30.6301C43.3961 31.6901 44.1461 32.5401 45.1961 32.7301Z" fill="url(#paint0_linear_7_25)"/>
</g>
<defs>
<linearGradient id="paint0_linear_7_25" x1="-5.11156" y1="28.1131" x2="41.9894" y2="28.1706" gradientUnits="userSpaceOnUse">
<stop stop-color="#BC9260"/>
<stop offset="1" stop-color="#EFD1A0"/>
</linearGradient>
<clipPath id="clip0_7_25">
<rect width="70.2006" height="55.7005" fill="white" transform="translate(0.14563 0.64978)"/>
</clipPath>
</defs>
</svg>
