<svg width="15" height="40" viewBox="0 0 15 40" fill="none" xmlns="http://www.w3.org/2000/svg">
<path d="M14.797 1.96166L2.89002 20.0022L14.797 38.0428C14.9795 38.3317 15.0379 38.678 14.9596 39.0078C14.8814 39.3377 14.6727 39.625 14.378 39.8085C14.1653 39.9331 13.9213 39.9993 13.6724 40C13.4484 39.9989 13.2282 39.9439 13.0318 39.8399C12.8354 39.7358 12.6691 39.5861 12.5479 39.4043L0.199934 20.683C0.0692177 20.4783 0 20.2426 0 20.0022C0 19.7618 0.0692177 19.5261 0.199934 19.3214L12.5479 0.600108C12.735 0.312352 13.033 0.108105 13.3762 0.032301C13.7194 -0.0435032 14.0798 0.0153447 14.378 0.195898C14.6763 0.376451 14.888 0.663919 14.9665 0.995064C15.0451 1.32621 14.9841 1.6739 14.797 1.96166Z" fill="white"/>
</svg>
