<svg width="15" height="40" viewBox="0 0 15 40" fill="none" xmlns="http://www.w3.org/2000/svg">
<path opacity="0.8" d="M0.20304 38.0383L12.11 19.9978L0.20304 1.95723C0.0204849 1.6683 -0.0378847 1.322 0.0403757 0.992153C0.118636 0.662304 0.327336 0.374992 0.621987 0.191463C0.834738 0.066864 1.07871 0.000663757 1.32758 0C1.55162 0.00107574 1.77182 0.0561218 1.96821 0.160149C2.16459 0.264175 2.33093 0.413883 2.45213 0.595676L14.8001 19.317C14.9308 19.5217 15 19.7574 15 19.9978C15 20.2382 14.9308 20.4739 14.8001 20.6786L2.45213 39.3999C2.26499 39.6876 1.96704 39.8919 1.62383 39.9677C1.28061 40.0435 0.920235 39.9847 0.621987 39.8041C0.32374 39.6235 0.112046 39.3361 0.0334787 39.0049C-0.0450888 38.6738 0.0159044 38.3261 0.20304 38.0383Z" fill="white"/>
</svg>
