<svg width="51" height="39" viewBox="0 0 51 39" fill="none" xmlns="http://www.w3.org/2000/svg">
<path d="M41.9771 10.6031L35.0642 17.4038C34.2713 18.1838 34.8164 19.5 35.9314 19.5H40.3666C40.3666 27.5681 33.7014 34.125 25.5 34.125C23.5426 34.125 21.6347 33.7594 19.925 33.0525C19.033 32.6869 18.0172 32.955 17.3482 33.6131C16.0845 34.8563 16.5305 36.9525 18.1906 37.6106C20.4454 38.5125 22.9231 39 25.5 39C36.4517 39 45.3221 30.2738 45.3221 19.5H49.7573C50.8723 19.5 51.4174 18.1837 50.6245 17.4281L43.7116 10.6275C43.2408 10.14 42.4479 10.14 41.9771 10.6031ZM10.6334 19.5C10.6334 11.4319 17.2986 4.875 25.5 4.875C27.4574 4.875 29.3653 5.24063 31.075 5.9475C31.967 6.31313 32.9828 6.045 33.6518 5.38688C34.9155 4.14375 34.4695 2.0475 32.8094 1.38938C30.5546 0.4875 28.0769 0 25.5 0C14.5483 0 5.67788 8.72625 5.67788 19.5H1.24268C0.12769 19.5 -0.417418 20.8163 0.375467 21.5719L7.28843 28.3725C7.78398 28.86 8.55209 28.86 9.04764 28.3725L15.9606 21.5719C16.1318 21.4 16.2475 21.1822 16.2931 20.9458C16.3386 20.7094 16.3121 20.465 16.2167 20.2434C16.1213 20.0219 15.9614 19.833 15.7571 19.7007C15.5527 19.5684 15.3132 19.4986 15.0686 19.5H10.6334Z" fill="#B5373F"/>
</svg>
